<?xml version="1.0" encoding="UTF-8" standalone="no"?>
<svg
   xmlns:dc="http://purl.org/dc/elements/1.1/"
   xmlns:cc="http://creativecommons.org/ns#"
   xmlns:rdf="http://www.w3.org/1999/02/22-rdf-syntax-ns#"
   xmlns:svg="http://www.w3.org/2000/svg"
   xmlns="http://www.w3.org/2000/svg"
   version="1.0"
   id="svg6237"
   height="32"
   width="32">
  <defs
     id="defs6239" />
  <metadata
     id="metadata6242">
    <rdf:RDF>
      <cc:Work
         rdf:about="">
        <dc:format>image/svg+xml</dc:format>
        <dc:type
           rdf:resource="http://purl.org/dc/dcmitype/StillImage" />
        <dc:title></dc:title>
      </cc:Work>
    </rdf:RDF>
  </metadata>
  <g
     transform="translate(0,-224)"
     id="layer1">
    <g
       style="fill:#2e3436"
       transform="matrix(0.25221125,0,0,0.25221125,41.774356,255.62866)"
       id="g6230">
      <path
         style="fill:#2e3436;fill-opacity:1;fill-rule:nonzero;stroke:none;stroke-width:2.46375012;stroke-miterlimit:4;stroke-dasharray:none;stroke-opacity:1"
         id="path9"
         d="m -63.883826,-115.2699 c -22.295562,0 -26.477906,31.755906 -13.935406,31.755906 12.540687,0 36.231872,-31.755906 13.935406,-31.755906 z" />
      <path
         style="fill:#2e3436;fill-opacity:1;fill-rule:nonzero;stroke:none;stroke-width:2.46375012;stroke-miterlimit:4;stroke-dasharray:none;stroke-opacity:1"
         id="path11"
         d="m -100.90505,-87.448931 c 6.678161,0.407812 14.005193,-25.485559 1.45363,-23.857029 -12.54703,1.62853 -8.1345,23.449216 -1.45363,23.857029 z" />
      <path
         style="fill:#2e3436;fill-opacity:1;fill-rule:nonzero;stroke:none;stroke-width:2.46375012;stroke-miterlimit:4;stroke-dasharray:none;stroke-opacity:1"
         id="path13"
         d="m -131.51092,-71.359369 c 4.74966,-2.090718 0.61172,-22.54025 -7.46478,-16.963187 -8.07288,5.577969 2.71512,19.053 7.46478,16.963187 z" />
      <path
         style="fill:#2e3436;fill-opacity:1;fill-rule:nonzero;stroke:none;stroke-width:2.46375012;stroke-miterlimit:4;stroke-dasharray:none;stroke-opacity:1"
         id="path15"
         d="m -118.12833,-82.063087 c 5.6541,-1.152751 5.96404,-24.345503 -4.1189,-20.184903 -10.08475,4.161496 -1.53066,21.339465 4.1189,20.184903 l 0,0 z" />
      <path
         style="fill:#2e3436;fill-opacity:1;fill-rule:nonzero;stroke:none;stroke-width:2.46375012;stroke-miterlimit:4;stroke-dasharray:none;stroke-opacity:1"
         d="m -88.603607,-30.161244 c 1.003219,7.661438 -5.620563,11.445031 -12.107503,6.505969 -20.65072,-15.722531 34.191909,-23.565219 30.576878,-45.046062 -3.000594,-17.829563 -57.706378,-12.340407 -63.935938,15.556687 -4.21678,18.869937 17.35741,45.04788 39.868657,45.04788 11.074375,0 23.847968,-9.999568 26.23775,-22.66713 1.825187,-9.659719 -21.477219,-5.789125 -20.639844,0.602656 l 0,0 z"
         id="newshape" />
    </g>
  </g>
</svg>
